<svg version="1.2" xmlns="http://www.w3.org/2000/svg" viewBox="0 0 1080 540" width="1080" height="540">
	<title>Plantsy-svg</title>
	<style>
		.s0 { fill: none;stroke: #e8e8d6;stroke-width: 2 } 
		.s1 { fill: none;stroke: #aab6a5;stroke-width: 2 } 
		.s2 { fill: none;stroke: #939e7c;stroke-width: 2 } 
		.s3 { fill: none;stroke: #c2cdb7;stroke-width: 2 } 
		.s4 { fill: none;stroke: #e5d2bd;stroke-width: 2 } 
		.s5 { fill: none;stroke: #ecdfcb;stroke-width: 2 } 
		.s6 { fill: #546c4a } 
		.s7 { fill: #d1d0ad } 
		.s8 { fill: #849a6f } 
		.s9 { fill: #caa47b } 
		.s10 { fill: #d8be97 } 
	</style>
	<g id="Layer">
		<path id="Layer" fill-rule="evenodd" class="s0" d="m245.9 69.5q-3.7 1.9-7.2 4c-21.2 12.9-40.7 18.8-53.7 38-14.1 20.6-0.2 43.1 11.1 60.9q19.8 31.1 38.8 62.5 0.1 0.2 0.1 0c-0.1-19.1-1.6-42-9.6-59.3q-8.1-17.8-15.9-35.7-0.1-0.1-0.1-0.3 0-0.1 0.1-0.2 0.2-0.5 0.4-0.1c11.9 20.4 23.3 42.3 28.4 65.4 0.5 2.2 1.6 5.9 4.1 5.7q0.5-0.1 0.6 0.4 0 0.3 0.1 0.4"/>
		<path id="Layer" fill-rule="evenodd" class="s1" d="m243.1 211.3q1.2 45.7 2 91.4c0.4 22.3-0.3 44.5 0.6 66.7q1.7 41.9 4.5 83.8 0.3 4.5 0.9 9.3 0 0.2 0.1 0.4 0.2 0.1 0.4 0.1 0.2 0 0.4-0.1 0.1-0.2 0.2-0.4 0.7-5.6 0.9-11.8 1.3-36.4 1.1-72.8c0-17.4-1.6-34.5-1.7-52.2-0.1-35.8-1.8-69.1-3.1-107.4-0.6-16.8 0.7-31.5 5.7-47.5q8.4-26.9 15.7-54.1 0.1-0.1 0.2-0.1 0.1-0.1 0.3-0.1 0 0 0.1 0 0 0 0 0 0.1 0.1 0.1 0.1 0 0.1 0 0.1-2.4 16.7-5.2 27.6c-3.3 13-10 30.4-10.7 45.5q-1 20.8-0.5 41.6 0 0 0 0 0 0.1 0.1 0.1 0 0 0 0 0.1 0 0.1-0.1 16.2-25.3 31.4-51.3c10.6-18.2 20.8-38.1 25.4-59 2.4-10.9-1.1-17.7-9.5-24.9q-9.9-8.5-22-13.8-16.1-7.1-32-14.8-0.5-0.2-0.9 0.2l-1.8 1.7"/>
		<path id="Layer" fill-rule="evenodd" class="s2" d="m243.1 211.3c-0.8-48.2 1.1-93.9 3.1-133.9q0.2-4.2-0.3-7.9"/>
		<path id="Layer" fill-rule="evenodd" class="s3" d="m169.5 194.8q12.8 18.7 33.4 44 15.6 19 34 35.1 0.1 0 0.2 0 0.1 0.1 0.1 0 0.1 0 0.2-0.1 0-0.1 0-0.2c-0.6-11.7-1.1-19.6-7.3-29.5-24.9-39.9-53.9-77.5-68.1-123.2q-0.2-0.5-0.6-0.1c-9.9 9.2-14.8 22.5-15.9 35.7q-1.4 17.4-2.3 39.8c-0.6 17.6 2.1 32.2 14.4 45 3.7 3.8 10.9 10.5 16 14.4q29.9 23.2 58.2 48.5 2.5 2.3 6.3 5 0.3 0.2 0.3-0.1 0.9-11.1-4-19.3c-4.1-6.9-10.6-15.6-16.7-23.6q-17.7-23.2-34.7-46.9c-5.3-7.3-11-15.8-13.6-24.5q-0.1-0.3 0.1 0z"/>
		<path id="Layer" fill-rule="evenodd" class="s1" d="m348.2 162.3q-5.4 31.2-26.2 55.3c-21.4 24.8-41.6 50.5-62.3 76-2.2 2.7-1.2 15-1.3 19q0 0.1 0.1 0.2 0 0.1 0.1 0.2 0.1 0 0.3 0 0.1 0 0.1-0.1c8.2-8.3 16.3-17.2 24.5-25.1 13-12.5 26.5-24 47-41.8 20.8-18.1 59.2-59.2 43.7-89.3q-2.9-5.7-12.7-15.3-8.7-8.6-18.5-17.3-1.5-1.4-2 0.6c-4.6 18.6-18.2 36.5-30.3 51.1-19.7 23.8-37.4 45.3-52.2 69.1-1.1 1.8-1.1 3.3-1.1 5.4q0.5 14.5 0.7 28.5 0 1.1 0.8 0.3 24.5-25.9 46.7-50c14.2-15.5 25.5-30.3 34.2-49.2q4-8.7 7.8-17.8 0.1-0.1 0.2-0.2 0.1 0 0.2 0 0.1 0.1 0.1 0.2 0.1 0.1 0.1 0.2z"/>
		<path id="Layer" fill-rule="evenodd" class="s4" d="m365.8 248.4c-6.6 14.7-17.8 28.1-29.9 38.5q-18 15.7-45.6 36.4c-8.8 6.6-31.8 25.3-33.1 37.6q0 0.3 0.1 0.5 0.1 0.2 0.3 0.3 0.1 0.1 0.4 0.1 0.2 0 0.4-0.1 29.9-16.1 61.1-29.8c15.5-6.7 29.4-13.4 42.2-20.9 29.7-17.3 46.1-47 39.1-81.8q-3.4-16.9-10.7-34-1-2.2-2-3.7-0.3-0.5-0.7 0c-9.4 10.3-16.3 24.1-24.7 34.6q-14.9 18.5-33.4 33.6c-13.4 11-27.2 21.7-39.3 34.2q-15 15.6-30.2 30.6-0.3 0.2-0.5 0.5-0.2 0.3-0.3 0.7-0.2 0.3-0.2 0.6-0.1 0.4-0.1 0.7l-0.4 10.7q0 0.1 0.1 0.3 0 0.1 0.1 0.1 0.1 0.1 0.3 0.1 0.1-0.1 0.2-0.1 26.4-20.6 53.5-40.4c19.9-14.5 37.3-30.3 53-49.4q0-0.1 0.1-0.1 0 0 0.1 0 0.1 0 0.1 0.1 0 0.1 0 0.1z"/>
		<path id="Layer" fill-rule="evenodd" class="s1" d="m143.5 261.8q0.1-0.1 0.3-0.1 0.1 0 0.2 0.2c25.4 35.4 58.6 60.1 97.3 79.4q0.4 0.2 0.3-0.3c-1.8-18-14.4-31.6-28.4-42.2-37.9-28.5-76.5-54-94.2-100.6q-0.6-1.7-1.3 0-6.4 16.8-9.4 34c-8.7 51.1 49 92.3 87.4 112.1q22.2 11.5 44.3 26.5 0.5 0.3 0.5-0.3c1.2-11.4-0.9-14.5-9.4-21.8q-12.8-11.1-26.4-21c-24.4-17.7-47.1-38.6-61.3-65.8q0 0 0 0 0-0.1 0-0.1 0 0 0 0 0.1-0.1 0.1-0.1z"/>
		<path id="Layer" fill-rule="evenodd" class="s1" d="m617 210.8q0-0.1 0-0.1 0-0.1-0.1-0.1 0-0.1-0.1-0.1 0 0-0.1 0h-13.2q-0.1 0-0.1 0 0 0-0.1 0.1 0 0 0 0.1-0.1 0-0.1 0v114q0 0.1 0.1 0.1 0 0.1 0 0.1 0.1 0.1 0.1 0.1 0 0 0.1 0h13.2q0.1 0 0.1 0 0.1 0 0.1-0.1 0.1 0 0.1-0.1 0 0 0-0.1z"/>
		<path id="Layer" fill-rule="evenodd" class="s1" d="m515.3 282.5q16.2 0 32.4 0c16.5 0 31.4-7.9 35.4-25 2.2-9.6 0.8-21-5.3-28.7-7.5-9.5-19.8-12.5-31.6-12.5q-22.8-0.1-45.7 0-0.5 0-0.5 0.5v107.7q0 0.5 0.5 0.5h13.8q0 0 0.1 0 0.1-0.1 0.2-0.1 0.1-0.1 0.1-0.2 0-0.1 0.1-0.2v-41.5q0-0.5 0.5-0.5z"/>
		<path id="Layer" fill-rule="evenodd" class="s1" d="m829.5 241v-17.8q0-0.4-0.5-0.4h-8.1q-0.7 0-0.9 0.6l-3.8 17.7q-0.1 0.4-0.5 0.4h-9.2q-0.5 0-0.5 0.5v9q0 0.5 0.5 0.5h8.5q0.5 0 0.5 0.5 0 27.8 0.3 55.7c0.2 19.6 14.6 20.9 30 16.6q0.4-0.1 0.4-0.6v-9q0-0.6-0.6-0.5c-6.3 1.7-16 2.2-16.1-7.2q-0.1-18.4 0-55 0-0.5 0.5-0.5h14.2q0.5 0 0.5-0.5l0.1-9q0-0.5-0.5-0.5h-14.3q-0.5 0-0.5-0.5z"/>
		<path id="Layer" fill-rule="evenodd" class="s1" d="m688.6 309.5q0.1-0.2 0.3-0.3 0.2-0.1 0.5-0.1 0.2 0.1 0.4 0.3 0.1 0.2 0.1 0.4c-0.3 16.4 12.6 17.6 25.1 14.7q0.5-0.1 0.5-0.6v-7.4q0-0.5-0.5-0.4c-9.6 0.8-12-2.2-12-11.4q0-16.5 0-33-0.1-9.4-1.1-13.1c-5.2-19.1-27.9-20.9-43.9-17.2q-16.7 3.8-20 20.5 0 0.1 0 0.2 0.1 0.1 0.1 0.2 0.1 0.1 0.2 0.1 0.1 0.1 0.2 0.1l13.5 1.2q0.5 0.1 0.6-0.5 1.4-10.8 12.4-12.4c17.6-2.5 25.3 5.2 23.9 22.7q-0.1 0.5-0.5 0.5c-17.7 0.7-49.1-2.9-53.5 21.6-3.1 16.9 4.8 29.6 22.3 30.9 13.3 1 25.3-4.9 31.4-17z"/>
		<path id="Layer" fill-rule="evenodd" class="s1" d="m739.8 255.2l-0.6-13.2q0-0.5-0.5-0.5h-12.2q-0.4 0-0.4 0.5c1.3 27.3 0.4 55.1 0.4 82.5q0 0.5 0.5 0.5h12.7q0.6 0 0.6-0.6-0.1-22.2 0.1-44.4 0.2-9.9 1.7-14.7 5.3-16.5 24.5-14.2c12.2 1.4 12.7 12.9 12.7 22.9q0 25.2-0.1 50.5 0 0.5 0.6 0.5h12.9q0.1 0 0.2 0 0.1-0.1 0.2-0.1 0.1-0.1 0.1-0.2 0-0.1 0-0.2 0.1-27.6 0-55.2c-0.1-12.6-3-25-17-28.2-14.5-3.3-28.9 0.3-35.8 14.3q-0.1 0.1-0.2 0.1-0.1 0-0.2 0-0.1 0-0.1-0.1-0.1-0.1-0.1-0.2z"/>
		<path id="Layer" fill-rule="evenodd" class="s1" d="m855.4 264.4c0.3 10.3 8.2 16.8 17.3 19.7q10.8 3.4 21.7 6.4 5.9 1.5 8.8 3.8c5.4 4.3 5.7 14.5-0.8 18.4-4.4 2.7-9.9 3.2-15.4 3.3-9.9 0-19.1-2.2-22.8-12.5q-0.1-0.5-0.6-0.4l-11.1 2.2q-0.5 0.1-0.4 0.6c2.4 9.8 8.5 15.7 18.3 18.5 16.1 4.5 46 3.8 50.1-18.2 4.4-24.3-23.3-28.1-40-32.8-7.8-2.3-15.1-7.2-10.4-16.4 4.1-8 20-6.8 27.1-4.9q7.2 2 9.6 9.6 0.1 0.4 0.5 0.4l11.4-1.4q0.6-0.1 0.5-0.7c-2.2-10.6-9.1-16-19.7-18.4-17.4-4-44.7-1.1-44.1 22.8z"/>
		<path id="Layer" fill-rule="evenodd" class="s1" d="m966.7 309q-11.7-33.8-24.9-67-0.2-0.5-0.7-0.5h-13.5q-0.7 0-0.4 0.6l32.5 81.9q0.2 0.5 0.1 0.9c-3 9.1-8.3 19.1-18.2 21.7-2.9 0.7-6.2 0.3-9.3 0.1q-0.6 0-0.6 0.5v9q0 0.5 0.6 0.7c21.6 5.3 32.4-10.4 39.1-27.7q10.4-26.5 33.6-87.3 0.2-0.4-0.3-0.4h-13.7q-0.4 0-0.5 0.4l-23.2 67.1q-0.3 0.8-0.6 0z"/>
		<path id="Layer" fill-rule="evenodd" class="s5" d="m361.7 343.5q-5.3 5.9-11.7 10.5c-24.4 17.3-58.1 33.1-88.2 31.5q-1.9-0.1-3.3 0.3-0.1 0.1-0.2 0.1-0.1 0.1-0.1 0.3 0 0.1 0 0.2 0 0.1 0.1 0.2 14.8 17.5 35.5 23.1c38.8 10.4 74.1-7.9 95.9-39.8 18.1-26.5 23.1-55.9 19.5-88q-0.2-1.7-1.4-0.6c-21 19-39.9 37-65.7 49.9-10.6 5.3-24.2 10.6-36.3 15.6q-21.2 8.6-41.8 25.7c-1.5 1.2-3.4 2.5-4.3 4.3q-0.7 1.4 0.8 1.5c26.5 1.4 54.5-9.2 78.3-21.3 7.5-3.8 15.2-9 22.6-13.8q0.1-0.1 0.2-0.1 0.1 0 0.2 0.1 0 0.1 0 0.2 0 0.1-0.1 0.1z"/>
		<path id="Layer" fill-rule="evenodd" class="s1" d="m139.3 338.2q8.1 6.1 21.8 17c13.3 10.5 30.9 20.2 46.8 25.6q15.7 5.3 32.4 3.8 0.2-0.1 0.3-0.1 0.1-0.1 0.1-0.2 0.1-0.2 0-0.3 0-0.1-0.1-0.2-16.5-13.1-34.1-24.3c-11-6.9-24.5-14.2-36.8-21.2-25.7-14.8-52.5-31.3-75-50.7q-1.4-1.2-1.5 0.7c-0.6 26.6 9 54.2 22.7 76.8 14.8 24.2 38.1 42.6 66.3 47.8 18.3 3.4 44.2-1.5 55-18.3q0.1-0.2 0.1-0.4 0-0.2-0.1-0.4-0.1-0.1-0.3-0.3-0.1-0.1-0.3-0.1-23.1-2.2-44-12.5-30.1-14.7-53.4-42.5-0.1-0.1-0.1-0.1 0-0.1 0.1-0.1 0 0 0 0 0.1 0 0.1 0z"/>
		<path id="Layer" fill-rule="evenodd" class="s1" d="m514.7 228.5l0.1 42.1q0 0.1 0 0.2 0.1 0.1 0.1 0.1 0.1 0.1 0.1 0.1 0.1 0 0.2 0l33-0.1c2.8 0 5.5-0.5 8.1-1.5 2.5-1 4.9-2.4 6.8-4.2 2-1.8 3.5-4 4.6-6.3 1-2.4 1.6-4.9 1.5-7.5v-4.1c0-2.6-0.5-5.1-1.6-7.4-1.1-2.4-2.6-4.5-4.6-6.3-2-1.8-4.3-3.2-6.9-4.1-2.5-1-5.3-1.5-8-1.5l-33.1 0.1q-0.1 0-0.1 0-0.1 0.1-0.1 0.1-0.1 0.1-0.1 0.1 0 0.1 0 0.2z"/>
		<path id="Layer" fill-rule="evenodd" class="s1" d="m648.9 305.3c2.1 15.8 24.2 11.5 31.9 3.9q10-9.8 7.9-24.8-0.1-0.4-0.5-0.4-9.9-0.3-19.8 0.5c-12.8 1.1-21.5 6.1-19.5 20.8z"/>
	</g>
	<path id="Layer" class="s6" d="m243.1 211.3c-0.8-48.2 1.1-93.9 3.1-133.9q0.2-4.2-0.3-7.9l1.8-1.7q0.4-0.4 0.9-0.1 15.9 7.6 32 14.7 12.1 5.3 22 13.8c8.4 7.2 11.9 14 9.5 24.9-4.6 21-14.8 40.8-25.4 59q-15.2 26-31.4 51.3 0 0.1-0.1 0.1 0 0 0 0-0.1 0-0.1-0.1 0 0 0 0-0.5-20.8 0.5-41.6c0.7-15.1 7.4-32.5 10.7-45.5q2.8-10.9 5.2-27.6 0 0 0-0.1 0 0-0.1-0.1 0 0 0 0-0.1 0-0.1 0-0.2 0-0.3 0.1-0.1 0-0.2 0.2-7.3 27.1-15.7 54c-5 16-6.3 30.7-5.7 47.5 1.3 38.3 3 71.6 3.1 107.5 0.1 17.6 1.7 34.7 1.7 52.1q0.2 36.4-1.1 72.8-0.2 6.2-0.9 11.8-0.1 0.2-0.2 0.4-0.2 0.1-0.4 0.1-0.2 0-0.4-0.1-0.1-0.2-0.1-0.4-0.6-4.8-0.9-9.3-2.8-41.9-4.5-83.8c-0.9-22.2-0.2-44.4-0.6-66.7q-0.8-45.7-2-91.5z"/>
	<path id="Layer" class="s7" d="m245.9 69.5q0.5 3.7 0.3 7.9c-2 40-3.9 85.7-3.1 133.8q-0.1-0.1-0.1-0.4-0.1-0.5-0.6-0.4c-2.5 0.2-3.6-3.5-4.1-5.7-5.1-23.1-16.5-45-28.4-65.4q-0.2-0.4-0.4 0.1-0.1 0.1-0.1 0.2 0 0.2 0.1 0.3 7.8 17.9 15.9 35.7c8 17.3 9.5 40.2 9.6 59.3q0 0.2-0.1 0-19-31.4-38.8-62.5c-11.3-17.8-25.2-40.3-11.1-60.9 13-19.2 32.5-25.1 53.7-38q3.5-2.1 7.2-4z"/>
	<path id="Layer" class="s8" d="m169.4 194.8c2.6 8.7 8.3 17.2 13.6 24.5q17 23.7 34.7 46.9c6.1 8 12.6 16.7 16.7 23.6q4.9 8.2 4 19.3 0 0.3-0.3 0.1-3.8-2.7-6.3-5-28.3-25.3-58.2-48.5c-5.1-3.9-12.3-10.6-16-14.4-12.3-12.8-15-27.4-14.4-45q0.9-22.4 2.3-39.8c1.1-13.2 6-26.5 15.9-35.7q0.4-0.4 0.6 0.1c14.2 45.7 43.2 83.3 68.1 123.2 6.2 9.9 6.7 17.8 7.3 29.5q0 0.1 0 0.2-0.1 0.1-0.2 0.1 0 0.1-0.1 0-0.1 0-0.2 0-18.4-16.1-34-35.1-20.6-25.3-33.4-44-0.2-0.3-0.1 0z"/>
	<path id="Layer" class="s6" d="m348.2 162.3q0-0.1-0.1-0.2 0-0.1-0.1-0.2-0.1 0-0.2 0-0.1 0.1-0.1 0.2-3.9 9.1-7.9 17.8c-8.7 18.9-20 33.7-34.2 49.2q-22.2 24.1-46.7 50-0.8 0.8-0.8-0.3-0.2-14-0.7-28.5c0-2.1 0-3.6 1.1-5.4 14.8-23.8 32.5-45.3 52.2-69.1 12.1-14.6 25.7-32.5 30.3-51.1q0.5-2 2-0.6 9.8 8.7 18.5 17.3 9.8 9.6 12.7 15.3c15.5 30.1-22.9 71.2-43.7 89.3-20.5 17.8-34 29.3-47 41.8-8.2 7.9-16.3 16.8-24.5 25.1q0 0.1-0.1 0.1-0.2 0-0.3 0-0.1-0.1-0.1-0.2-0.1-0.1-0.1-0.2c0.1-4-0.9-16.3 1.3-19 20.7-25.5 40.9-51.2 62.3-76q20.8-24.1 26.2-55.3z"/>
	<path id="Layer" class="s9" d="m365.8 248.4q0 0 0-0.1 0-0.1-0.1-0.1-0.1 0-0.1 0-0.1 0-0.1 0.1c-15.7 19.1-33.1 34.9-53 49.4q-27.1 19.8-53.5 40.4-0.1 0-0.2 0.1-0.2 0-0.3-0.1-0.1 0-0.1-0.1-0.1-0.2-0.1-0.3l0.4-10.7q0-0.3 0.1-0.7 0-0.3 0.2-0.6 0.1-0.4 0.3-0.7 0.2-0.3 0.5-0.5 15.3-15 30.2-30.6c12.1-12.5 25.9-23.2 39.3-34.2q18.5-15.1 33.4-33.6c8.4-10.5 15.3-24.3 24.7-34.6q0.4-0.5 0.7 0 1 1.5 2 3.7 7.3 17.1 10.7 34c7 34.8-9.4 64.5-39.1 81.8-12.8 7.5-26.7 14.2-42.2 20.9q-31.2 13.7-61.1 29.8-0.2 0.1-0.4 0.1-0.3 0-0.4-0.1-0.2-0.1-0.3-0.3-0.1-0.2-0.1-0.5c1.3-12.3 24.3-31 33.1-37.6q27.6-20.7 45.6-36.4c12.1-10.4 23.3-23.8 29.9-38.5z"/>
	<path id="Layer" class="s6" d="m143.4 261.9c14.2 27.2 36.9 48.1 61.3 65.9q13.6 9.8 26.4 20.9c8.5 7.3 10.6 10.4 9.4 21.8q0 0.6-0.5 0.3-22.1-15-44.3-26.5c-38.4-19.8-96.1-61-87.4-112.1q3-17.2 9.4-34 0.7-1.7 1.3 0c17.7 46.6 56.3 72.1 94.2 100.6 14 10.6 26.6 24.2 28.4 42.2q0.1 0.5-0.4 0.3c-38.6-19.3-71.8-44-97.2-79.4q-0.1-0.1-0.2-0.1-0.2 0-0.3 0 0-0.1-0.1 0 0 0 0 0 0 0 0 0.1 0 0 0 0z"/>
	<path id="Layer" class="s6" d="m603.2 210.8c0-0.2 0.2-0.3 0.3-0.3h13.2c0.2 0 0.3 0.1 0.3 0.2v114c0 0.2-0.1 0.3-0.3 0.3h-13.2c-0.1 0-0.3-0.1-0.3-0.3z"/>
	<path id="Layer" fill-rule="evenodd" class="s6" d="m514.8 283v41.5q-0.1 0.1-0.1 0.2 0 0.1-0.1 0.2-0.1 0-0.2 0.1-0.1 0-0.1 0h-13.8q-0.5 0-0.5-0.5v-107.7q0-0.5 0.5-0.5 22.9-0.1 45.7 0c11.8 0 24.1 3 31.6 12.5 6.1 7.7 7.5 19.1 5.3 28.7-4 17.1-18.9 25-35.4 25q-16.2 0-32.4 0-0.5 0-0.5 0.5zm-0.1-54.5l0.1 42.1q0 0.1 0 0.2 0.1 0.1 0.1 0.1 0.1 0.1 0.1 0.1 0.1 0 0.2 0l33-0.1c2.8 0 5.5-0.5 8.1-1.5 2.5-1 4.9-2.4 6.8-4.2 2-1.8 3.5-4 4.6-6.3 1-2.4 1.6-4.9 1.6-7.5l-0.1-4.1c0-2.6-0.5-5.1-1.6-7.4-1.1-2.4-2.6-4.5-4.6-6.3-2-1.8-4.3-3.2-6.9-4.1-2.5-1-5.3-1.5-8-1.5l-33.1 0.1q-0.1 0-0.1 0-0.1 0.1-0.1 0.1-0.1 0.1-0.1 0.1 0 0.1 0 0.2z"/>
	<path id="Layer" class="s6" d="m830 241.5h14.3q0.5 0 0.5 0.5l-0.1 9q0 0.5-0.5 0.5h-14.2q-0.5 0-0.5 0.5-0.1 36.6 0 55c0.1 9.4 9.8 8.9 16.1 7.2q0.6-0.1 0.6 0.5v9q0 0.5-0.4 0.6c-15.4 4.3-29.8 3-30-16.6q-0.3-27.9-0.3-55.7 0-0.5-0.5-0.5h-8.5q-0.5 0-0.5-0.5v-9q0-0.5 0.5-0.5h9.2q0.4 0 0.5-0.4l3.8-17.7q0.2-0.6 0.9-0.6h8.1q0.5 0 0.5 0.5v17.7q0 0.5 0.5 0.5z"/>
	<path id="Layer" fill-rule="evenodd" class="s6" d="m688.6 309.5c-6.1 12.1-18.1 18-31.4 17-17.5-1.3-25.4-14-22.3-30.9 4.4-24.5 35.8-20.9 53.5-21.6q0.4 0 0.5-0.5c1.4-17.5-6.3-25.2-23.9-22.7q-11 1.6-12.4 12.4-0.1 0.6-0.6 0.5l-13.5-1.2q-0.1 0-0.2-0.1-0.1 0-0.2-0.1 0-0.1-0.1-0.2 0-0.1 0-0.2 3.3-16.7 20-20.5c16-3.7 38.7-1.9 43.9 17.2q1 3.7 1.1 13.1 0 16.5 0 33c0 9.2 2.4 12.2 12 11.4q0.5-0.1 0.5 0.4v7.4q0 0.5-0.5 0.6c-12.5 2.9-25.4 1.7-25.1-14.7q0-0.2-0.1-0.4-0.2-0.2-0.4-0.3-0.3 0-0.5 0.1-0.2 0.1-0.3 0.3zm-39.8-4.2c2.2 15.8 24.3 11.5 31.9 3.9q10.1-9.8 8-24.8-0.1-0.4-0.5-0.4-9.9-0.3-19.8 0.5c-12.8 1.1-21.5 6.1-19.6 20.8z"/>
	<path id="Layer" class="s6" d="m739.8 255.2q0 0.1 0.1 0.2 0 0.1 0.1 0.1 0.1 0 0.2 0 0.1 0 0.2-0.1c6.9-14 21.3-17.6 35.8-14.3 14 3.2 16.9 15.6 17 28.2q0.1 27.6 0 55.2 0 0.1 0 0.2 0 0.1-0.1 0.2-0.1 0-0.2 0.1-0.1 0-0.2 0h-12.9q-0.6 0-0.6-0.5 0.1-25.3 0.1-50.5c0-10-0.5-21.5-12.7-22.9q-19.2-2.3-24.5 14.2-1.5 4.8-1.7 14.7-0.2 22.2-0.1 44.4 0 0.6-0.6 0.6h-12.6q-0.6 0-0.6-0.5c0-27.4 0.9-55.2-0.4-82.5q0-0.5 0.4-0.5h12.2q0.5 0 0.5 0.5z"/>
	<path id="Layer" class="s6" d="m872.7 284.1c-9.1-2.9-17.1-9.4-17.3-19.7-0.6-23.9 26.7-26.9 44.1-22.9 10.6 2.5 17.5 7.9 19.7 18.5q0.1 0.6-0.5 0.7l-11.4 1.4q-0.4 0-0.6-0.4-2.3-7.6-9.5-9.6c-7.1-2-23-3.1-27.1 4.9-4.7 9.2 2.6 14.1 10.4 16.4 16.7 4.7 44.4 8.5 40 32.8-4.1 22-34 22.7-50.1 18.2-9.8-2.8-15.9-8.7-18.3-18.5q-0.1-0.5 0.4-0.6l11.1-2.2q0.5-0.1 0.6 0.4c3.7 10.3 12.9 12.5 22.8 12.5 5.5-0.1 11-0.6 15.4-3.3 6.5-3.9 6.2-14.1 0.8-18.4q-2.9-2.3-8.8-3.8-10.9-3-21.7-6.4z"/>
	<path id="Layer" class="s6" d="m967.3 309l23.2-67.1q0.1-0.4 0.6-0.4h13.6q0.5 0 0.3 0.4-23.2 60.8-33.5 87.3c-6.8 17.3-17.6 33-39.2 27.7q-0.5-0.2-0.5-0.7v-9q0-0.5 0.5-0.5c3.1 0.2 6.4 0.6 9.3-0.1 9.9-2.6 15.2-12.6 18.2-21.7q0.1-0.4-0.1-0.9l-32.5-81.9q-0.3-0.6 0.4-0.6h13.5q0.5 0 0.7 0.5 13.2 33.2 24.9 67 0.3 0.8 0.6 0z"/>
	<path id="Layer" class="s10" d="m361.4 343.2c-7.4 4.8-15.1 10-22.6 13.8-23.8 12.1-51.8 22.7-78.3 21.3q-1.5-0.1-0.8-1.5c0.9-1.8 2.8-3.1 4.3-4.3q20.6-17.1 41.8-25.7c12.1-5 25.7-10.3 36.3-15.6 25.8-12.9 44.7-30.9 65.7-49.9q1.2-1.1 1.4 0.6c3.6 32.1-1.4 61.5-19.5 88-21.8 31.9-57.1 50.2-95.9 39.8q-20.7-5.6-35.5-23.1-0.1-0.1-0.1-0.2 0-0.1 0-0.2 0-0.2 0.1-0.3 0.1 0 0.2-0.1 1.4-0.4 3.3-0.3c30.1 1.6 63.8-14.2 88.2-31.5q6.4-4.6 11.7-10.5 0.1 0 0.1-0.1 0-0.1 0-0.2-0.1-0.1-0.2-0.1-0.1 0-0.2 0.1z"/>
	<path id="Layer" class="s6" d="m139.2 338.4q23.3 27.8 53.4 42.5 20.9 10.3 44 12.5 0.2 0 0.3 0.1 0.2 0.2 0.3 0.3 0.1 0.2 0.1 0.4 0 0.2-0.1 0.4c-10.8 16.8-36.7 21.7-55 18.3-28.2-5.2-51.5-23.6-66.3-47.8-13.7-22.6-23.3-50.2-22.7-76.8q0.1-1.9 1.5-0.7c22.5 19.4 49.3 35.9 75 50.7 12.3 7 25.8 14.3 36.8 21.2q17.6 11.2 34.1 24.3 0.1 0.1 0.1 0.2 0.1 0.1 0 0.3 0 0.1-0.1 0.2-0.1 0-0.2 0.1-16.8 1.5-32.5-3.8c-15.8-5.4-33.5-15.1-46.8-25.6q-13.7-10.9-21.8-17 0 0-0.1 0 0 0 0 0-0.1 0-0.1 0.1 0 0 0.1 0.1z"/>
</svg>